# xmcd CD database file
#
# Track frame offsets:
#	150
#	25053
#	48748
#	64499
#	170307
#
# Disc length: 2720 seconds
#
# Revision: 3
# Processed by: cddbd v1.5.2PL0 Copyright (c) Steve Scherf et al.
# Submitted via: CDex 1.51
#
DISCID=400a9e05
DTITLE=Musicas Para Relaxamento - Sons da Natureza - Bird Song
DYEAR=2000
DGENRE=New Age
TTITLE0=In Flight
TTITLE1=Communication
TTITLE2=Calls Of Comfort
TTITLE3=Unity
TTITLE4=Triumphant
EXTD=YEAR: 2000
EXTT0=
EXTT1=
EXTT2=
EXTT3=
EXTT4=
PLAYORDER=
